<svg width="32" height="32" viewBox="0 0 32 32" xmlns="http://www.w3.org/2000/svg">
  <path fill-rule="evenodd" clip-rule="evenodd" d="M10 6C8.34315 6 7 7.34315 7 9V15C7 16.6569 8.34315 18 10 18H11V23C11 24.6569 12.3431 26 14 26H18C19.6569 26 21 24.6569 21 23V18H22C23.6569 18 25 16.6569 25 15V9C25 7.34315 23.6569 6 22 6H10ZM9 9C9 8.44772 9.44772 8 10 8H22C22.5523 8 23 8.44772 23 9V15C23 15.5523 22.5523 16 22 16H10C9.44772 16 9 15.5523 9 15V9ZM13 18V23C13 23.5523 13.4477 24 14 24H18C18.5523 24 19 23.5523 19 23V18H13Z" fill="currentColor"/>
</svg>